<svg width="29" height="23" viewBox="0 0 29 23" fill="none" xmlns="http://www.w3.org/2000/svg">
<path d="M25.2613 22.9324H2.93127C1.42327 22.9324 0.17627 21.6854 0.17627 20.1774V3.64739C0.17627 2.13939 1.42327 0.892395 2.93127 0.892395H25.2613C26.7693 0.892395 28.0163 2.13939 28.0163 3.64739V20.1774C28.0163 21.6854 26.7693 22.9324 25.2613 22.9324ZM2.93127 2.05239C2.06127 2.05239 1.33627 2.77739 1.33627 3.64739V20.1774C1.33627 21.0474 2.06127 21.7724 2.93127 21.7724H25.2613C26.1313 21.7724 26.8563 21.0474 26.8563 20.1774V3.64739C26.8563 2.77739 26.1313 2.05239 25.2613 2.05239H2.93127V2.05239Z" fill="white"/>
<path d="M14.096 15.5084C13.951 15.5084 13.806 15.4504 13.69 15.3344L4.52605 6.17045C4.29405 5.93845 4.29405 5.59044 4.52605 5.35844C4.75805 5.12644 5.10605 5.12644 5.33805 5.35844L14.096 14.0874L23.028 5.15545C23.26 4.92345 23.608 4.92345 23.84 5.15545C24.072 5.38745 24.072 5.73544 23.84 5.96744L14.502 15.3344C14.386 15.4504 14.241 15.5084 14.096 15.5084Z" fill="white"/>
<path d="M5.01945 18.4374C4.87445 18.4374 4.72945 18.3794 4.61345 18.2634C4.38145 18.0314 4.38145 17.6834 4.61345 17.4514L10.6164 11.4484C10.8484 11.2164 11.1964 11.2164 11.4284 11.4484C11.6604 11.6804 11.6604 12.0284 11.4284 12.2604L5.45445 18.2634C5.33845 18.3794 5.16445 18.4374 5.01945 18.4374Z" fill="white"/>
<path d="M23.4634 18.4374C23.3184 18.4374 23.1734 18.3794 23.0574 18.2634L17.0544 12.2604C16.8224 12.0284 16.8224 11.6804 17.0544 11.4484C17.2864 11.2164 17.6344 11.2164 17.8664 11.4484L23.8694 17.4514C24.1014 17.6834 24.1014 18.0314 23.8694 18.2634C23.7534 18.3794 23.6084 18.4374 23.4634 18.4374Z" fill="white"/>
</svg>
