<svg width="24" height="25" viewBox="0 0 24 25" fill="none" xmlns="http://www.w3.org/2000/svg">
<g clip-path="url(#clip0_1_14594)">
<path d="M12 14.4231C13.4834 14.4231 14.9334 14.0001 16.1668 13.2077C17.4001 12.4153 18.3614 11.289 18.9291 9.97128C19.4968 8.65354 19.6453 7.20354 19.3559 5.80464C19.0665 4.40574 18.3522 3.12077 17.3033 2.11221C16.2544 1.10366 14.918 0.41683 13.4632 0.138571C12.0083 -0.139688 10.5003 0.00312467 9.12987 0.548949C7.75943 1.09477 6.58809 2.01909 5.76398 3.20502C4.93987 4.39096 4.5 5.78523 4.5 7.21154C4.50268 9.12337 5.29372 10.9562 6.69966 12.308C8.1056 13.6599 10.0117 14.4205 12 14.4231ZM12 1.92308C13.0878 1.92308 14.1512 2.23324 15.0556 2.81435C15.9601 3.39545 16.6651 4.22139 17.0813 5.18773C17.4976 6.15407 17.6065 7.21741 17.3943 8.24327C17.1821 9.26913 16.6583 10.2114 15.8891 10.951C15.1199 11.6907 14.1399 12.1943 13.073 12.3984C12.0061 12.6024 10.9002 12.4977 9.89524 12.0974C8.89025 11.6972 8.03126 11.0193 7.42692 10.1497C6.82257 9.27997 6.5 8.2575 6.5 7.21154C6.50089 5.80922 7.08064 4.46458 8.1119 3.47298C9.14316 2.48139 10.5416 1.92394 12 1.92308Z" fill="white"/>
<path d="M17.9932 14.056C17.4016 14.5356 16.7502 14.9426 16.0541 15.2677C17.6647 15.9528 19.0588 17.0344 20.0956 18.4033C21.1325 19.7721 21.7754 21.3798 21.9595 23.064H2.05068C2.23379 21.3808 2.87519 19.7739 3.9102 18.4051C4.94521 17.0363 6.33724 15.9542 7.94594 15.2677C7.25018 14.9447 6.59881 14.5398 6.00676 14.0625C4.18381 15.073 2.66923 16.5266 1.61494 18.2776C0.560654 20.0285 0.00371978 22.0153 0 24.0385L0 25.013H23.9865V24.0385C23.9853 22.0154 23.431 20.0282 22.3791 18.2761C21.3272 16.5241 19.8147 15.0687 17.9932 14.056Z" fill="white"/>
</g>
<defs>
<clipPath id="clip0_1_14594">
<rect width="24" height="25" fill="white"/>
</clipPath>
</defs>
</svg>
