<svg width="37" height="37" viewBox="0 0 37 37" fill="none" xmlns="http://www.w3.org/2000/svg">
<path d="M32.9672 27.3677C33.3274 27.7291 33.5974 28.1704 33.7554 28.6556C33.9134 29.1408 33.9549 29.6565 33.8765 30.1607C33.7982 30.665 33.6021 31.1437 33.3043 31.5581C33.0066 31.9726 32.6153 32.311 32.1624 32.5461C29.5741 33.9295 26.5584 34.2831 23.7202 33.5359C16.1877 31.6396 5.36053 20.8125 3.46428 13.2799C2.71707 10.4418 3.07063 7.42609 4.45403 4.83775C4.68913 4.38481 5.02759 3.9936 5.44201 3.69581C5.85642 3.39801 6.33515 3.20199 6.83941 3.12363C7.34368 3.04526 7.85931 3.08676 8.34456 3.24474C8.8298 3.40273 9.27102 3.67277 9.63249 4.033L12.8469 7.24583C13.3104 7.70472 13.6241 8.29326 13.7465 8.93393C13.869 9.57459 13.7945 10.2373 13.5329 10.8348C13.2466 11.5052 12.8401 12.1176 12.3335 12.6417C8.65816 16.317 20.6847 28.3435 24.3585 24.6667C24.8827 24.1582 25.4956 23.7501 26.1669 23.4626C26.7643 23.2006 27.4271 23.1259 28.0679 23.2483C28.7087 23.3708 29.2972 23.6847 29.7559 24.1487L32.9672 27.3677Z" fill="white"/>
</svg>
